<svg width="135" height="40" viewBox="0 0 135 40" fill="none" xmlns="http://www.w3.org/2000/svg">
<rect width="40" height="40" rx="13.0719" fill="#13B98F"/>
<path d="M34.9899 19.9999C34.9899 22.9644 34.1108 25.8624 32.4638 28.3274C30.8168 30.7923 28.4758 32.7135 25.7369 33.848C23.1036 34.9387 20.2161 35.2552 17.4133 34.7639C19.0862 34.3334 20.6694 33.4632 21.9793 32.1533C25.8817 28.2509 25.8817 21.9238 21.9793 18.0214C18.0769 14.119 11.7498 14.119 7.84743 18.0214C6.53749 19.3313 5.66727 20.9145 5.23676 22.5874C4.74551 19.7845 5.06193 16.8971 6.15269 14.2638C7.28718 11.5249 9.20838 9.18387 11.6733 7.53685C14.1383 5.88983 17.0363 5.01074 20.0008 5.01074L20.0008 13.1153C23.4247 12.9672 26.356 13.6396 26.3602 13.6405C26.3611 13.6446 27.0335 16.576 26.8854 19.9998L34.9899 19.9999Z" fill="white"/>
<path d="M14.9133 32.1533C12.9621 34.1045 9.79861 34.1045 7.8474 32.1533C5.8962 30.2021 5.8962 27.0385 7.8474 25.0873C9.79861 23.1361 12.9621 23.1361 14.9133 25.0873C16.8645 27.0385 16.8645 30.2021 14.9133 32.1533Z" fill="white"/>
<path d="M48.0776 26.5V7.88562H53.3064V26.5H48.0776ZM52.3129 26.5V22.1601H62.2999V26.5H52.3129ZM52.3129 19.1275V14.8922H61.3325V19.1275H52.3129ZM52.3129 12.2255V7.88562H62.143V12.2255H52.3129ZM64.7749 26.5V7.88562H68.4351L70.0037 11.8072V26.5H64.7749ZM77.5854 26.5L66.788 12.9314L68.4351 7.88562L79.2325 21.4542L77.5854 26.5ZM77.5854 26.5L76.2782 22.3693V7.88562H81.507V26.5H77.5854ZM89.0315 26.5V7.88562H94.2602V26.5H89.0315ZM83.4629 12.3301V7.88562H99.855V12.3301H83.4629ZM101.82 26.5V7.88562H107.049V26.5H101.82ZM114.588 26.5V7.88562H119.817V26.5H114.588ZM109.019 12.3301V7.88562H125.412V12.3301H109.019ZM127.377 26.5V7.88562H132.606V26.5H127.377Z" fill="white"/>
<path d="M47.636 35.5V34.7898H49.0636C49.3146 34.7898 49.5087 34.7116 49.646 34.5554C49.7833 34.3991 49.852 34.2192 49.852 34.0156C49.852 33.8783 49.8212 33.7504 49.7596 33.6321C49.6981 33.5137 49.6081 33.419 49.4898 33.348C49.3714 33.2769 49.2293 33.2414 49.0636 33.2414H47.636V32.5312H48.9429C49.1559 32.5312 49.3264 32.4767 49.4542 32.3678C49.5821 32.2589 49.646 32.098 49.646 31.8849C49.646 31.6718 49.5821 31.5108 49.4542 31.4019C49.3264 31.293 49.1559 31.2386 48.9429 31.2386H47.636V30.5283H48.9642C49.3004 30.5283 49.5797 30.5899 49.8023 30.713C50.0248 30.8361 50.1905 30.9947 50.2994 31.1888C50.4083 31.383 50.4628 31.5913 50.4628 31.8139C50.4628 32.0743 50.3894 32.3039 50.2426 32.5028C50.1006 32.7017 49.8899 32.8626 49.6105 32.9858L49.6744 32.7301C49.9869 32.8579 50.2308 33.0378 50.406 33.2698C50.5812 33.5019 50.6688 33.7741 50.6688 34.0866C50.6688 34.3423 50.6048 34.5767 50.477 34.7898C50.3539 35.0028 50.1692 35.1757 49.923 35.3082C49.6815 35.4361 49.3832 35.5 49.0281 35.5H47.636ZM47.0749 35.5V30.5283H47.8917V35.5H47.0749ZM51.1238 35.5L53.1693 30.5283H53.7375L55.7688 35.5H54.8881L53.2971 31.4729H53.5954L51.9903 35.5H51.1238ZM52.1323 34.5412V33.8309H54.7673V34.5412H52.1323ZM56.9857 35.5V34.7542H58.2925C58.6334 34.7542 58.9317 34.6809 59.1874 34.5341C59.4478 34.3873 59.6491 34.1837 59.7911 33.9233C59.9379 33.6581 60.0113 33.3527 60.0113 33.0071C60.0113 32.6661 59.9379 32.3655 59.7911 32.1051C59.6443 31.8446 59.4407 31.641 59.1803 31.4942C58.9246 31.3475 58.6287 31.2741 58.2925 31.2741H56.9857V30.5283H58.3138C58.6737 30.5283 59.0075 30.5922 59.3153 30.7201C59.623 30.8432 59.8905 31.0184 60.1178 31.2457C60.3498 31.4682 60.5298 31.731 60.6576 32.034C60.7855 32.3323 60.8494 32.659 60.8494 33.0142C60.8494 33.3645 60.7855 33.6913 60.6576 33.9943C60.5298 34.2973 60.3522 34.5625 60.1249 34.7898C59.8977 35.0123 59.6301 35.1875 59.3224 35.3153C59.0146 35.4384 58.6831 35.5 58.328 35.5H56.9857ZM56.4246 35.5V30.5283H57.2414V35.5H56.4246ZM61.682 35.5V30.5283H62.2502L64.317 33.9304H63.9477L66.0145 30.5283H66.5827V35.5H65.7659V31.963L65.9506 32.0127L64.4164 34.5341H63.8482L62.3141 32.0127L62.4988 31.963V35.5H61.682ZM67.6608 35.5V30.5283H68.4776V35.5H67.6608ZM69.5543 35.5V30.5283H70.1225L70.3711 31.4658V35.5H69.5543ZM72.999 35.5L70.0231 31.615L70.1225 30.5283L73.0984 34.4133L72.999 35.5ZM72.999 35.5L72.7504 34.6264V30.5283H73.5672V35.5H72.999ZM75.8953 35.5V30.6704H76.7121V35.5H75.8953ZM74.276 31.2741V30.5283H78.3314V31.2741H74.276ZM80.9967 35.571C80.6416 35.571 80.3101 35.5047 80.0024 35.3722C79.6946 35.2396 79.4247 35.0573 79.1927 34.8253C78.9607 34.5885 78.7784 34.3163 78.6458 34.0085C78.518 33.696 78.454 33.3622 78.454 33.0071C78.454 32.6519 78.518 32.3205 78.6458 32.0127C78.7784 31.705 78.9583 31.4351 79.1856 31.203C79.4176 30.9663 79.6851 30.784 79.9882 30.6562C80.2959 30.5236 80.6274 30.4573 80.9825 30.4573C81.3376 30.4573 81.6667 30.5236 81.9697 30.6562C82.2775 30.784 82.5474 30.9663 82.7794 31.203C83.0114 31.4351 83.1913 31.7073 83.3192 32.0198C83.4518 32.3276 83.5181 32.659 83.5181 33.0142C83.5181 33.3693 83.4518 33.7031 83.3192 34.0156C83.1913 34.3234 83.0114 34.5933 82.7794 34.8253C82.5521 35.0573 82.2846 35.2396 81.9768 35.3722C81.6738 35.5047 81.3471 35.571 80.9967 35.571ZM80.9825 34.7898C81.3187 34.7898 81.6122 34.714 81.8632 34.5625C82.1189 34.411 82.3178 34.2026 82.4598 33.9375C82.6066 33.6676 82.68 33.3574 82.68 33.0071C82.68 32.7466 82.6374 32.5099 82.5521 32.2968C82.4716 32.079 82.3556 31.892 82.2041 31.7357C82.0526 31.5747 81.8727 31.4516 81.6643 31.3664C81.4607 31.2812 81.2335 31.2386 80.9825 31.2386C80.6511 31.2386 80.3575 31.3143 80.1018 31.4658C79.8509 31.6126 79.652 31.8186 79.5052 32.0837C79.3632 32.3489 79.2921 32.6567 79.2921 33.0071C79.2921 33.2675 79.3324 33.509 79.4129 33.7315C79.4981 33.9493 79.6141 34.1363 79.7609 34.2926C79.9124 34.4488 80.0923 34.572 80.3007 34.6619C80.509 34.7471 80.7363 34.7898 80.9825 34.7898ZM84.3487 35.5V30.5283H84.9168L85.1654 31.4658V35.5H84.3487ZM87.7933 35.5L84.8174 31.615L84.9168 30.5283L87.8927 34.4133L87.7933 35.5ZM87.7933 35.5L87.5447 34.6264V30.5283H88.3615V35.5H87.7933ZM93.1201 35.571C92.7602 35.571 92.4264 35.5071 92.1186 35.3793C91.8156 35.2467 91.5504 35.0644 91.3231 34.8324C91.0959 34.5956 90.9207 34.3234 90.7976 34.0156C90.6745 33.7031 90.6129 33.3693 90.6129 33.0142C90.6129 32.659 90.6745 32.3276 90.7976 32.0198C90.9207 31.7073 91.0959 31.4351 91.3231 31.203C91.5504 30.971 91.8156 30.7887 92.1186 30.6562C92.4264 30.5236 92.7602 30.4573 93.1201 30.4573C93.5225 30.4573 93.8705 30.5236 94.1641 30.6562C94.4577 30.7887 94.7181 30.9687 94.9454 31.1959L94.3914 31.7499C94.2446 31.5889 94.0647 31.4635 93.8516 31.3735C93.6433 31.2835 93.3994 31.2386 93.1201 31.2386C92.8738 31.2386 92.6489 31.2812 92.4453 31.3664C92.2417 31.4516 92.0642 31.5747 91.9126 31.7357C91.7659 31.892 91.6522 32.079 91.5717 32.2968C91.4912 32.5146 91.451 32.7537 91.451 33.0142C91.451 33.2746 91.4912 33.5137 91.5717 33.7315C91.6522 33.9493 91.7659 34.1387 91.9126 34.2997C92.0642 34.4559 92.2417 34.5767 92.4453 34.6619C92.6489 34.7471 92.8738 34.7898 93.1201 34.7898C93.4231 34.7898 93.6788 34.7448 93.8871 34.6548C94.1002 34.5601 94.2801 34.4323 94.4269 34.2713L94.9809 34.8253C94.7536 35.0573 94.4861 35.2396 94.1783 35.3722C93.8705 35.5047 93.5178 35.571 93.1201 35.571ZM97.7955 35.571C97.4404 35.571 97.109 35.5047 96.8012 35.3722C96.4934 35.2396 96.2235 35.0573 95.9915 34.8253C95.7595 34.5885 95.5772 34.3163 95.4446 34.0085C95.3168 33.696 95.2529 33.3622 95.2529 33.0071C95.2529 32.6519 95.3168 32.3205 95.4446 32.0127C95.5772 31.705 95.7572 31.4351 95.9844 31.203C96.2164 30.9663 96.484 30.784 96.787 30.6562C97.0948 30.5236 97.4262 30.4573 97.7813 30.4573C98.1365 30.4573 98.4655 30.5236 98.7686 30.6562C99.0763 30.784 99.3462 30.9663 99.5782 31.203C99.8103 31.4351 99.9902 31.7073 100.118 32.0198C100.251 32.3276 100.317 32.659 100.317 33.0142C100.317 33.3693 100.251 33.7031 100.118 34.0156C99.9902 34.3234 99.8103 34.5933 99.5782 34.8253C99.351 35.0573 99.0834 35.2396 98.7757 35.3722C98.4726 35.5047 98.1459 35.571 97.7955 35.571ZM97.7813 34.7898C98.1175 34.7898 98.4111 34.714 98.662 34.5625C98.9177 34.411 99.1166 34.2026 99.2586 33.9375C99.4054 33.6676 99.4788 33.3574 99.4788 33.0071C99.4788 32.7466 99.4362 32.5099 99.351 32.2968C99.2705 32.079 99.1545 31.892 99.0029 31.7357C98.8514 31.5747 98.6715 31.4516 98.4632 31.3664C98.2596 31.2812 98.0323 31.2386 97.7813 31.2386C97.4499 31.2386 97.1563 31.3143 96.9006 31.4658C96.6497 31.6126 96.4508 31.8186 96.304 32.0837C96.162 32.3489 96.091 32.6567 96.091 33.0071C96.091 33.2675 96.1312 33.509 96.2117 33.7315C96.2969 33.9493 96.4129 34.1363 96.5597 34.2926C96.7112 34.4488 96.8912 34.572 97.0995 34.6619C97.3078 34.7471 97.5351 34.7898 97.7813 34.7898ZM101.147 35.5V30.5283H101.716L103.782 33.9304H103.413L105.48 30.5283H106.048V35.5H105.231V31.963L105.416 32.0127L103.882 34.5341H103.314L101.78 32.0127L101.964 31.963V35.5H101.147ZM107.126 35.5V30.5283H107.694L109.761 33.9304H109.392L111.459 30.5283H112.027V35.5H111.21V31.963L111.395 32.0127L109.861 34.5341H109.292L107.758 32.0127L107.943 31.963V35.5H107.126ZM115.023 35.571C114.649 35.571 114.312 35.4858 114.014 35.3153C113.716 35.1449 113.479 34.9129 113.304 34.6193C113.133 34.321 113.048 33.9848 113.048 33.6108V30.5283H113.865V33.6037C113.865 33.8451 113.915 34.0558 114.014 34.2358C114.118 34.411 114.258 34.5483 114.433 34.6477C114.608 34.7424 114.805 34.7898 115.023 34.7898C115.245 34.7898 115.442 34.7424 115.612 34.6477C115.783 34.5483 115.918 34.411 116.017 34.2358C116.116 34.0558 116.166 33.8475 116.166 33.6108V30.5283H116.983V33.6179C116.983 33.9919 116.898 34.3257 116.727 34.6193C116.557 34.9129 116.325 35.1449 116.031 35.3153C115.738 35.4858 115.401 35.571 115.023 35.571ZM118.009 35.5V30.5283H118.577L118.826 31.4658V35.5H118.009ZM121.453 35.5L118.477 31.615L118.577 30.5283L121.553 34.4133L121.453 35.5ZM121.453 35.5L121.205 34.6264V30.5283H122.022V35.5H121.453ZM123.1 35.5V30.5283H123.916V35.5H123.1ZM126.243 35.5V30.6704H127.06V35.5H126.243ZM124.624 31.2741V30.5283H128.679V31.2741H124.624ZM130.634 33.5113L128.695 30.5283H129.64L131.152 32.9076H130.712L132.225 30.5283H133.155L131.202 33.5113H130.634ZM130.52 35.5V33H131.337V35.5H130.52Z" fill="white"/>
</svg>
