<svg width="104" height="150" viewBox="0 0 104 150" fill="none" xmlns="http://www.w3.org/2000/svg">
<rect x="0.513672" width="102.971" height="102.971" rx="33.6507" fill="#13B98F"/>
<path d="M90.5864 51.4856C90.5864 59.1172 88.3233 66.5775 84.0834 72.9229C79.8435 79.2684 73.8172 84.2141 66.7665 87.1346C59.9876 89.9425 52.5545 90.757 45.3392 89.4924C49.6458 88.3842 53.7212 86.144 57.0934 82.7719C67.1392 72.726 67.1392 56.4384 57.0934 46.3925C47.0475 36.3466 30.7599 36.3466 20.714 46.3925C17.3418 49.7646 15.1016 53.84 13.9934 58.1466C12.7288 50.9313 13.5433 43.4982 16.3512 36.7193C19.2717 29.6686 24.2175 23.6422 30.5629 19.4023C36.9084 15.1624 44.3686 12.8994 52.0002 12.8994L52.0002 33.7628C60.8142 33.3815 68.3603 35.1124 68.371 35.1149C68.3734 35.1255 70.1043 42.6716 69.723 51.4855L90.5864 51.4856Z" fill="white"/>
<path d="M38.9036 82.7718C33.8807 87.7948 25.7369 87.7948 20.7139 82.7718C15.691 77.7489 15.691 69.6051 20.7139 64.5822C25.7369 59.5592 33.8807 59.5592 38.9036 64.5822C43.9266 69.6051 43.9266 77.7489 38.9036 82.7718Z" fill="white"/>
<path d="M1.82259 137.694V115.699H8.00086V137.694H1.82259ZM6.82699 137.694V132.566H18.6275V137.694H6.82699ZM6.82699 128.982V123.978H17.4845V128.982H6.82699ZM6.82699 120.827V115.699H18.4421V120.827H6.82699ZM21.552 137.694V115.699H25.8768L27.7303 120.333V137.694H21.552ZM36.6888 137.694L23.9307 121.661L25.8768 115.699L38.635 131.732L36.6888 137.694ZM36.6888 137.694L35.1442 132.813V115.699H41.3225V137.694H36.6888ZM50.2134 137.694V115.699H56.3917V137.694H50.2134ZM43.6336 120.951V115.699H63.0025V120.951H43.6336ZM65.3249 137.694V115.699H71.5031V137.694H65.3249ZM80.4109 137.694V115.699H86.5892V137.694H80.4109ZM73.8311 120.951V115.699H93.2V120.951H73.8311ZM95.5224 137.694V115.699H101.701V137.694H95.5224Z" fill="#1E1E1E"/>
<path d="M1.30078 148.694V147.855H2.98761C3.28413 147.855 3.51351 147.762 3.67576 147.578C3.83801 147.393 3.91914 147.18 3.91914 146.94C3.91914 146.778 3.88277 146.627 3.81004 146.487C3.73731 146.347 3.631 146.235 3.49114 146.151C3.35127 146.067 3.18342 146.025 2.98761 146.025H1.30078V145.186H2.84494C3.0967 145.186 3.29812 145.122 3.44917 144.993C3.60023 144.864 3.67576 144.674 3.67576 144.422C3.67576 144.17 3.60023 143.98 3.44917 143.852C3.29812 143.723 3.0967 143.659 2.84494 143.659H1.30078V142.819H2.87012C3.26734 142.819 3.59744 142.892 3.86039 143.038C4.12334 143.183 4.31916 143.37 4.44784 143.6C4.57652 143.829 4.64086 144.075 4.64086 144.338C4.64086 144.646 4.55414 144.917 4.3807 145.152C4.21286 145.387 3.96389 145.578 3.6338 145.723L3.70933 145.421C4.07859 145.572 4.36672 145.785 4.57372 146.059C4.78073 146.333 4.88423 146.655 4.88423 147.024C4.88423 147.326 4.8087 147.603 4.65764 147.855C4.51218 148.106 4.29399 148.311 4.00306 148.467C3.71772 148.618 3.36525 148.694 2.94565 148.694H1.30078ZM0.637804 148.694V142.819H1.6029V148.694H0.637804ZM5.42192 148.694L7.83886 142.819H8.51023L10.9104 148.694H9.86976L7.98992 143.935H8.34239L6.44576 148.694H5.42192ZM6.61361 147.561V146.722H9.7271V147.561H6.61361ZM12.3483 148.694V147.813H13.8924C14.2952 147.813 14.6477 147.726 14.9498 147.553C15.2575 147.379 15.4953 147.139 15.6632 146.831C15.8366 146.517 15.9233 146.157 15.9233 145.748C15.9233 145.345 15.8366 144.99 15.6632 144.682C15.4897 144.375 15.2492 144.134 14.9414 143.961C14.6393 143.787 14.2897 143.701 13.8924 143.701H12.3483V142.819H13.9176C14.3428 142.819 14.7372 142.895 15.1009 143.046C15.4646 143.191 15.7807 143.398 16.0492 143.667C16.3233 143.93 16.536 144.24 16.687 144.598C16.8381 144.951 16.9136 145.337 16.9136 145.757C16.9136 146.171 16.8381 146.557 16.687 146.915C16.536 147.273 16.3261 147.586 16.0576 147.855C15.789 148.118 15.4729 148.325 15.1093 148.476C14.7456 148.621 14.354 148.694 13.9344 148.694H12.3483ZM11.6853 148.694V142.819H12.6504V148.694H11.6853ZM17.8974 148.694V142.819H18.5688L21.0109 146.839H20.5745L23.0167 142.819H23.688V148.694H22.7229V144.515L22.9411 144.573L21.1284 147.553H20.4571L18.6443 144.573L18.8625 144.515V148.694H17.8974ZM24.9619 148.694V142.819H25.927V148.694H24.9619ZM27.1993 148.694V142.819H27.8707L28.1644 143.927V148.694H27.1993ZM31.2695 148.694L27.7532 144.103L27.8707 142.819L31.387 147.41L31.2695 148.694ZM31.2695 148.694L30.9758 147.662V142.819H31.9409V148.694H31.2695ZM34.6918 148.694V142.987H35.6569V148.694H34.6918ZM32.7784 143.701V142.819H37.5703V143.701H32.7784ZM40.7196 148.778C40.3 148.778 39.9083 148.699 39.5447 148.543C39.181 148.386 38.8621 148.171 38.588 147.897C38.3138 147.617 38.0984 147.295 37.9418 146.931C37.7907 146.562 37.7152 146.168 37.7152 145.748C37.7152 145.329 37.7907 144.937 37.9418 144.573C38.0984 144.21 38.311 143.891 38.5796 143.617C38.8537 143.337 39.1698 143.121 39.5279 142.97C39.8916 142.814 40.2832 142.735 40.7028 142.735C41.1224 142.735 41.5112 142.814 41.8693 142.97C42.233 143.121 42.5519 143.337 42.826 143.617C43.1002 143.891 43.3128 144.212 43.4638 144.582C43.6205 144.945 43.6988 145.337 43.6988 145.757C43.6988 146.176 43.6205 146.571 43.4638 146.94C43.3128 147.304 43.1002 147.622 42.826 147.897C42.5575 148.171 42.2414 148.386 41.8777 148.543C41.5196 148.699 41.1336 148.778 40.7196 148.778ZM40.7028 147.855C41.1 147.855 41.4469 147.765 41.7434 147.586C42.0455 147.407 42.2805 147.161 42.4484 146.848C42.6218 146.529 42.7085 146.162 42.7085 145.748C42.7085 145.44 42.6582 145.161 42.5575 144.909C42.4623 144.652 42.3253 144.431 42.1462 144.246C41.9672 144.056 41.7546 143.91 41.5084 143.81C41.2679 143.709 40.9993 143.659 40.7028 143.659C40.3112 143.659 39.9643 143.748 39.6622 143.927C39.3656 144.101 39.1307 144.344 38.9572 144.657C38.7894 144.971 38.7055 145.334 38.7055 145.748C38.7055 146.056 38.753 146.341 38.8481 146.604C38.9488 146.862 39.0859 147.083 39.2593 147.267C39.4384 147.452 39.651 147.597 39.8971 147.704C40.1433 147.804 40.4119 147.855 40.7028 147.855ZM44.6802 148.694V142.819H45.3516L45.6453 143.927V148.694H44.6802ZM48.7504 148.694L45.2341 144.103L45.3516 142.819L48.8679 147.41L48.7504 148.694ZM48.7504 148.694L48.4567 147.662V142.819H49.4218V148.694H48.7504ZM55.0445 148.778C54.6193 148.778 54.2248 148.702 53.8612 148.551C53.5031 148.395 53.1898 148.179 52.9212 147.905C52.6527 147.625 52.4457 147.304 52.3002 146.94C52.1548 146.571 52.082 146.176 52.082 145.757C52.082 145.337 52.1548 144.945 52.3002 144.582C52.4457 144.212 52.6527 143.891 52.9212 143.617C53.1898 143.342 53.5031 143.127 53.8612 142.97C54.2248 142.814 54.6193 142.735 55.0445 142.735C55.52 142.735 55.9312 142.814 56.2781 142.97C56.625 143.127 56.9327 143.34 57.2012 143.608L56.5467 144.263C56.3732 144.073 56.1606 143.924 55.9088 143.818C55.6627 143.712 55.3745 143.659 55.0445 143.659C54.7535 143.659 54.4878 143.709 54.2472 143.81C54.0066 143.91 53.7968 144.056 53.6178 144.246C53.4444 144.431 53.3101 144.652 53.215 144.909C53.1199 145.166 53.0723 145.449 53.0723 145.757C53.0723 146.064 53.1199 146.347 53.215 146.604C53.3101 146.862 53.4444 147.085 53.6178 147.276C53.7968 147.46 54.0066 147.603 54.2472 147.704C54.4878 147.804 54.7535 147.855 55.0445 147.855C55.4025 147.855 55.7046 147.801 55.9508 147.695C56.2026 147.583 56.4152 147.432 56.5886 147.242L57.2432 147.897C56.9747 148.171 56.6585 148.386 56.2949 148.543C55.9312 148.699 55.5144 148.778 55.0445 148.778ZM60.569 148.778C60.1494 148.778 59.7577 148.699 59.3941 148.543C59.0304 148.386 58.7115 148.171 58.4374 147.897C58.1632 147.617 57.9478 147.295 57.7912 146.931C57.6401 146.562 57.5646 146.168 57.5646 145.748C57.5646 145.329 57.6401 144.937 57.7912 144.573C57.9478 144.21 58.1604 143.891 58.429 143.617C58.7031 143.337 59.0192 143.121 59.3773 142.97C59.741 142.814 60.1326 142.735 60.5522 142.735C60.9718 142.735 61.3606 142.814 61.7187 142.97C62.0824 143.121 62.4013 143.337 62.6754 143.617C62.9496 143.891 63.1622 144.212 63.3132 144.582C63.4699 144.945 63.5482 145.337 63.5482 145.757C63.5482 146.176 63.4699 146.571 63.3132 146.94C63.1622 147.304 62.9496 147.622 62.6754 147.897C62.4069 148.171 62.0908 148.386 61.7271 148.543C61.369 148.699 60.983 148.778 60.569 148.778ZM60.5522 147.855C60.9494 147.855 61.2963 147.765 61.5928 147.586C61.8949 147.407 62.1299 147.161 62.2978 146.848C62.4712 146.529 62.5579 146.162 62.5579 145.748C62.5579 145.44 62.5076 145.161 62.4069 144.909C62.3118 144.652 62.1747 144.431 61.9957 144.246C61.8166 144.056 61.604 143.91 61.3578 143.81C61.1173 143.709 60.8487 143.659 60.5522 143.659C60.1606 143.659 59.8137 143.748 59.5116 143.927C59.2151 144.101 58.9801 144.344 58.8066 144.657C58.6388 144.971 58.5549 145.334 58.5549 145.748C58.5549 146.056 58.6024 146.341 58.6975 146.604C58.7982 146.862 58.9353 147.083 59.1088 147.267C59.2878 147.452 59.5004 147.597 59.7466 147.704C59.9927 147.804 60.2613 147.855 60.5522 147.855ZM64.5296 148.694V142.819H65.201L67.6431 146.839H67.2067L69.6488 142.819H70.3202V148.694H69.3551V144.515L69.5733 144.573L67.7606 147.553H67.0892L65.2765 144.573L65.4947 144.515V148.694H64.5296ZM71.5941 148.694V142.819H72.2655L74.7076 146.839H74.2712L76.7133 142.819H77.3847V148.694H76.4196V144.515L76.6378 144.573L74.8251 147.553H74.1537L72.341 144.573L72.5592 144.515V148.694H71.5941ZM80.9245 148.778C80.4825 148.778 80.0853 148.677 79.7328 148.476C79.3803 148.274 79.1006 148 78.8936 147.653C78.6922 147.301 78.5915 146.904 78.5915 146.462V142.819H79.5566V146.453C79.5566 146.738 79.6153 146.987 79.7328 147.2C79.8559 147.407 80.0209 147.569 80.2279 147.687C80.4349 147.799 80.6671 147.855 80.9245 147.855C81.1874 147.855 81.4196 147.799 81.621 147.687C81.8224 147.569 81.9819 147.407 82.0994 147.2C82.2169 146.987 82.2756 146.741 82.2756 146.462V142.819H83.2407V146.47C83.2407 146.912 83.14 147.306 82.9386 147.653C82.7372 148 82.463 148.274 82.1162 148.476C81.7693 148.677 81.3721 148.778 80.9245 148.778ZM84.4528 148.694V142.819H85.1242L85.4179 143.927V148.694H84.4528ZM88.523 148.694L85.0067 144.103L85.1242 142.819L88.6405 147.41L88.523 148.694ZM88.523 148.694L88.2293 147.662V142.819H89.1944V148.694H88.523ZM90.4683 148.694V142.819H91.4334V148.694H90.4683ZM94.1826 148.694V142.987H95.1477V148.694H94.1826ZM92.2692 143.701V142.819H97.0611V143.701H92.2692ZM99.3706 146.344L97.0796 142.819H98.1957L99.9833 145.631H99.4629L101.25 142.819H102.35L100.042 146.344H99.3706ZM99.2364 148.694V145.74H100.201V148.694H99.2364Z" fill="#1E1E1E"/>
</svg>
